<svg width="234" height="237" viewBox="0 0 234 237" fill="none" xmlns="http://www.w3.org/2000/svg">
<g clip-path="url(#clip0_13_2)">
<path d="M360.36 364.98H-126.36V-127.98H360.36V364.98Z" stroke="#FFDF00" stroke-width="0.13" stroke-linecap="round"/>
<path d="M221.111 145.219L197.408 157.819V132.619L221.111 145.219ZM223.171 175.893L197.408 189.588V162.198L223.171 148.503V175.893ZM193.29 164.387V189.588L169.587 176.988L193.29 164.387ZM145.258 217.311L119.496 231.006V203.616L145.258 189.921V217.311ZM89.6145 189.921L115.377 203.616V231.006L89.6145 217.311V189.921ZM41.178 189.803V164.172L65.2855 176.988L41.178 189.803ZM11.2974 148.718L37.0596 162.413V189.803L11.2974 176.108V148.718ZM37.4637 132.619V158.248L13.3566 145.433L37.4637 132.619ZM11.701 65.6667L31.023 75.9382L37.4637 79.3619V106.752L11.701 93.0567V65.6667ZM39.5229 48.6875L65.285 62.3828L63.5815 63.2886L39.5224 76.0776L33.0822 72.6539L13.7602 62.3828L39.5229 48.6875ZM89.6145 24.2485L108.936 34.5201L113.317 36.8489L89.6145 49.4492V24.2485ZM117.436 7.26938L143.198 20.9646L130.018 27.9715L117.436 34.6599L110.996 31.2358L91.6737 20.9646L117.436 7.26938ZM121.555 36.8489L145.258 24.2485V49.4492L121.555 36.8489ZM195.349 48.6875L221.111 62.3828L195.349 76.0776L171.291 63.2886L169.587 62.3828L195.349 48.6875ZM223.171 93.0567L197.408 106.752V79.3619L223.171 65.6667V93.0567ZM167.527 148.502L178.992 154.597L191.231 161.103L167.527 173.704V148.502ZM147.317 184.448L119.496 169.658V152.548L147.317 137.759L163.409 146.313V175.893L147.317 184.448ZM71.059 146.528L87.5553 137.759L115.377 152.548V169.658L87.5553 184.448L71.059 175.678V146.528ZM115.377 65.3339L91.6737 52.7331L115.377 40.1327V65.3339ZM119.496 65.3339V40.1327L143.198 52.7331L119.496 65.3339ZM167.527 65.6667L186.85 75.9382L191.231 78.267L167.527 90.8678V65.6667ZM193.29 106.752L169.587 94.1512L193.29 81.5509V106.752ZM169.587 145.219L193.29 132.619V157.819L169.587 145.219ZM149.376 104.895L165.469 96.3406L193.29 111.13V128.24L165.468 143.03L149.376 134.475V104.895ZM121.555 119.685L145.258 107.085V132.285L121.555 119.685ZM119.496 122.969L143.199 135.57L119.496 148.17V122.969ZM119.496 199.237V174.037L143.198 186.637L119.496 199.237ZM115.377 122.969V148.17L91.6737 135.57L115.377 122.969ZM89.6145 107.085L113.318 119.685L89.6145 132.285V107.085ZM64.8814 145.433L41.5821 157.819V133.048L64.8814 145.433ZM65.285 94.1512L41.5821 106.752V81.5509L65.285 94.1512ZM115.377 116.401L110.515 113.817L91.6737 103.801L115.377 91.2001V116.401ZM119.496 116.401V91.2001L143.198 103.801L119.496 116.401ZM67.3447 65.6667V90.8678L43.6413 78.267L48.0227 75.9382L67.3447 65.6667ZM68.9998 143.244L41.5821 128.669V111.13L69.4034 96.3406L85.4961 104.895V134.475L68.9998 143.244ZM91.6737 186.637L115.377 174.037V199.237L91.6737 186.637ZM163.409 63.4772V93.0567L147.317 101.611L119.496 86.8217V69.7122L147.317 54.9225L163.409 63.4772ZM87.5553 54.9225L115.377 69.7122V86.8217L87.5558 101.611L71.4631 93.0567V63.4772L87.5553 54.9225ZM43.6413 161.103L66.9406 148.718V173.489L43.6413 161.103ZM226.259 95.7931C226.897 95.4547 227.289 94.829 227.289 94.1512V62.3828C227.289 61.7054 226.897 61.0793 226.259 60.7408L196.379 44.8562C195.742 44.5172 194.957 44.5172 194.32 44.8562L165.468 60.1934L149.376 51.6386V20.9646C149.376 20.2873 148.983 19.6612 148.346 19.3227L118.466 3.43803C117.828 3.09959 117.044 3.09959 116.407 3.43803L86.5257 19.3227C85.8883 19.6612 85.4961 20.2873 85.4961 20.9646V51.6386L69.4034 60.1934L40.5525 44.8562C39.9157 44.5172 39.1301 44.5172 38.4933 44.8562L8.61222 60.7408C7.97542 61.0793 7.58262 61.7054 7.58262 62.3828V94.1512C7.58262 94.829 7.97542 95.4547 8.61222 95.7931L37.4637 111.13V128.24L8.20862 143.791C7.57129 144.13 7.17902 144.756 7.17902 145.433V177.203C7.17902 177.88 7.57129 178.506 8.20862 178.845L38.0892 194.729C38.4078 194.898 38.7635 194.983 39.1188 194.983C39.4745 194.983 39.8302 194.898 40.1484 194.729L69.4039 179.177L85.4961 187.732V218.406C85.4961 219.083 85.8883 219.709 86.5257 220.048L116.407 235.932C116.725 236.101 117.081 236.186 117.436 236.186C117.792 236.186 118.147 236.101 118.466 235.932L148.346 220.048C148.983 219.709 149.376 219.083 149.376 218.406V187.732L165.468 179.177L194.32 194.514C194.638 194.683 194.994 194.768 195.349 194.768C195.705 194.768 196.06 194.683 196.379 194.514L226.259 178.629C226.897 178.291 227.289 177.665 227.289 176.988V145.219C227.289 144.541 226.897 143.915 226.259 143.577L197.408 128.24V111.13L226.259 95.7931Z" fill="#FFDF00"/>
<path d="M226.259 95.7931C226.897 95.4547 227.289 94.829 227.289 94.1512V62.3828C227.289 61.7054 226.897 61.0793 226.259 60.7408L196.379 44.8562C195.742 44.5172 194.957 44.5172 194.32 44.8562L165.468 60.1934L149.376 51.6386V20.9646C149.376 20.2873 148.983 19.6612 148.346 19.3227L118.466 3.43804C117.828 3.0996 117.044 3.0996 116.407 3.43804L86.5257 19.3227C85.8883 19.6612 85.4961 20.2873 85.4961 20.9646V51.6386L69.4034 60.1934L40.5525 44.8562C39.9157 44.5172 39.1301 44.5172 38.4933 44.8562L8.61222 60.7408C7.97542 61.0793 7.58262 61.7054 7.58262 62.3828V94.1512C7.58262 94.829 7.97542 95.4547 8.61222 95.7931L37.4637 111.13V128.24L8.20862 143.791C7.57129 144.13 7.17902 144.756 7.17902 145.433V177.203C7.17902 177.88 7.57129 178.506 8.20862 178.845L38.0892 194.729C38.4078 194.898 38.7635 194.983 39.1188 194.983C39.4745 194.983 39.8302 194.898 40.1484 194.729L69.4039 179.177L85.4961 187.732V218.406C85.4961 219.083 85.8883 219.709 86.5257 220.048L116.407 235.932C116.725 236.101 117.081 236.186 117.436 236.186C117.792 236.186 118.147 236.101 118.466 235.932L148.346 220.048C148.983 219.709 149.376 219.083 149.376 218.406V187.732L165.468 179.177L194.32 194.514C194.638 194.683 194.994 194.768 195.349 194.768C195.705 194.768 196.06 194.683 196.379 194.514L226.259 178.629C226.897 178.291 227.289 177.665 227.289 176.988V145.219C227.289 144.541 226.897 143.915 226.259 143.577L197.408 128.24V111.13L226.259 95.7931M221.111 145.219L197.408 157.819V132.619L221.111 145.219ZM223.171 175.893L197.408 189.588V162.198L223.171 148.503V175.893ZM193.29 164.387V189.588L169.587 176.988L193.29 164.387ZM145.258 217.311L119.496 231.006V203.616L145.258 189.921V217.311ZM89.6145 189.921L115.377 203.616V231.006L89.6145 217.311V189.921ZM41.178 189.803V164.172L65.2855 176.988L41.178 189.803ZM11.2974 148.718L37.0596 162.413V189.803L11.2974 176.108V148.718ZM37.4637 132.619V158.248L13.3566 145.433L37.4637 132.619ZM11.701 65.6667L31.023 75.9382L37.4637 79.3619V106.752L11.701 93.0567V65.6667ZM39.5229 48.6875L65.285 62.3828L63.5815 63.2886L39.5224 76.0776L33.0822 72.6539L13.7602 62.3828L39.5229 48.6875ZM89.6145 24.2485L108.936 34.5201L113.317 36.8489L89.6145 49.4492V24.2485ZM117.436 7.26938L143.198 20.9646L130.018 27.9715L117.436 34.6599L110.996 31.2358L91.6737 20.9646L117.436 7.26938ZM121.555 36.8489L145.258 24.2485V49.4492L121.555 36.8489ZM195.349 48.6875L221.111 62.3828L195.349 76.0776L171.291 63.2886L169.587 62.3828L195.349 48.6875ZM223.171 93.0567L197.408 106.752V79.3619L223.171 65.6667V93.0567ZM167.527 148.502L178.992 154.597L191.231 161.103L167.527 173.704V148.502ZM147.317 184.448L119.496 169.658V152.548L147.317 137.759L163.409 146.313V175.893L147.317 184.448ZM71.059 146.528L87.5553 137.759L115.377 152.548V169.658L87.5553 184.448L71.059 175.678V146.528ZM115.377 65.3339L91.6737 52.7331L115.377 40.1327V65.3339ZM119.496 65.3339V40.1327L143.198 52.7331L119.496 65.3339ZM167.527 65.6667L186.85 75.9382L191.231 78.267L167.527 90.8678V65.6667ZM193.29 106.752L169.587 94.1512L193.29 81.5509V106.752ZM169.587 145.219L193.29 132.619V157.819L169.587 145.219ZM149.376 104.895L165.469 96.3406L193.29 111.13V128.24L165.468 143.03L149.376 134.475V104.895ZM121.555 119.685L145.258 107.085V132.285L121.555 119.685ZM119.496 122.969L143.199 135.57L119.496 148.17V122.969ZM119.496 199.237V174.037L143.198 186.637L119.496 199.237ZM115.377 122.969V148.17L91.6737 135.57L115.377 122.969ZM89.6145 107.085L113.318 119.685L89.6145 132.285V107.085ZM64.8814 145.433L41.5821 157.819V133.048L64.8814 145.433ZM65.285 94.1512L41.5821 106.752V81.5509L65.285 94.1512ZM115.377 116.401L110.515 113.817L91.6737 103.801L115.377 91.2001V116.401ZM119.496 116.401V91.2001L143.198 103.801L119.496 116.401ZM67.3447 65.6667V90.8678L43.6413 78.267L48.0227 75.9382L67.3447 65.6667ZM68.9998 143.244L41.5821 128.669V111.13L69.4034 96.3406L85.4961 104.895V134.475L68.9998 143.244ZM91.6737 186.637L115.377 174.037V199.237L91.6737 186.637ZM163.409 63.4772V93.0567L147.317 101.611L119.496 86.8217V69.7122L147.317 54.9225L163.409 63.4772ZM87.5553 54.9225L115.377 69.7122V86.8217L87.5558 101.611L71.4631 93.0567V63.4772L87.5553 54.9225ZM43.6413 161.103L66.9406 148.718V173.489L43.6413 161.103Z" stroke="#FFDF00" stroke-width="0.104881" stroke-linecap="round"/>
</g>
<defs>
<clipPath id="clip0_13_2">
<rect width="234" height="237" fill="white"/>
</clipPath>
</defs>
</svg>
