<svg width="234" height="237" viewBox="0 0 234 237" fill="none" xmlns="http://www.w3.org/2000/svg">
<path d="M117 22.7504C120.535 22.7504 123.401 19.2928 123.401 15.0274C123.401 14.5909 123.37 14.1631 123.313 13.7462H110.687C110.63 14.1631 110.599 14.5909 110.599 15.0274C110.599 19.2928 113.465 22.7504 117 22.7504Z" fill="#FFDF00"/>
<path d="M123.401 11.5975C123.401 11.5975 119.811 1.33514e-05 117.142 1.33514e-05C114.472 1.33514e-05 110.882 11.5975 110.882 11.5975H117.142H123.401Z" fill="#FFDF00"/>
<path d="M175.552 30.3168C175.552 30.3168 168.171 32.1318 162.933 30.7631C156.046 28.9634 149.765 24.2262 149.765 24.2262C149.765 24.2262 152.069 36.8614 160.1 38.2964C170.151 40.0929 175.552 30.3168 175.552 30.3168Z" fill="#FFDF00"/>
<path d="M108.15 29.1862L110.41 36.7907L110.652 105.757C112.979 106.303 114.758 106.889 117.057 107.532C118.215 107.856 119.363 108.195 120.496 108.551C121.624 108.905 121.992 109.08 123.083 109.47L123.889 36.7907L125.964 29.1862L117.057 23.7956L108.15 29.1862Z" fill="#FFDF00"/>
<path d="M156.338 39.0949C149.765 36.2249 148.556 27.1924 148.556 27.1924C148.556 27.1924 145.687 41.4898 151.566 45.2817C157.445 49.0736 167.376 41.348 167.376 41.348C167.376 41.348 161.373 41.2931 156.338 39.0949Z" fill="#FFDF00"/>
<path d="M165.41 21.0143C156.307 22.2927 148.904 20.2457 148.904 20.2457C148.904 20.2457 156.307 28.5171 167.307 29.1161C178.306 29.7146 179.064 17.23 179.064 17.23C179.064 17.23 174.513 19.7358 165.41 21.0143Z" fill="#FFDF00"/>
<path d="M71.624 18.7378C91.1569 19.3368 98.9317 9.35808 100.828 13.549C102.724 17.7404 105 32.309 112.396 22.7298C112.396 22.7298 108.603 20.9333 108.603 15.3455C108.603 9.75706 106.897 2.97172 97.7939 4.16919C88.6917 5.36667 85.2781 9.75704 69.1587 7.36209C53.0393 4.96714 43.0835 1.87371 44.5057 4.03003C46.9459 7.72954 59.6443 18.3709 71.624 18.7378Z" fill="#FFDF00"/>
<path d="M82.4756 61.6606C84.0917 61.1877 87.7852 60.0195 88.544 57.5403C89.0801 55.7873 89.2046 53.2955 89.2319 51.9855C88.998 51.998 88.7593 52.0056 88.513 52.0056C88.5124 52.0056 88.5124 52.0056 88.5124 52.0056C87.1726 52.0056 85.7481 51.8214 84.4316 51.5708C84.5705 53.1037 84.8494 57.1114 84.0876 58.1545C83.1393 59.4515 80.8594 62.1335 82.4756 61.6606Z" fill="#FFDF00"/>
<path d="M74.4668 61.2615C76.5519 61.043 81.2582 59.6509 82.017 56.7575C82.5174 54.8485 82.8134 52.5932 82.9301 51.2495C80.9483 50.781 79.468 50.2608 79.3565 50.2217L77.5875 49.5938C77.76 51.1131 78.1753 55.778 76.9915 57.356C75.569 59.2519 72.3822 61.48 74.4668 61.2615Z" fill="#FFDF00"/>
<path d="M73.8997 38.2964C81.9302 36.8614 84.2349 24.2262 84.2349 24.2262C84.2349 24.2262 77.9542 28.9634 71.0672 30.7631C65.8289 32.1318 58.4481 30.3168 58.4481 30.3168C58.4481 30.3168 63.8486 40.0929 73.8997 38.2964Z" fill="#FFDF00"/>
<path d="M88.3207 31.6208C88.3207 31.6208 88.9622 40.2184 85.9123 44.2897C84.167 46.6194 79.9679 48.3126 79.9679 48.3126C79.9679 48.3126 87.1741 50.8696 90.9667 49.6721C94.7599 48.4746 88.3207 31.6208 88.3207 31.6208Z" fill="#FFDF00"/>
<path d="M67.4853 54.4957C65.377 56.458 59.132 59.8352 61.2889 60.4613C63.4458 61.0875 72.1932 60.4613 73.8997 56.8689C75.2049 54.1217 75.4012 50.4168 75.4213 48.8252L75.3532 48.0169C75.3532 48.0169 72.7386 47.1179 71.5941 46.5999C71.3208 47.7185 70.1277 52.0372 67.4853 54.4957Z" fill="#FFDF00"/>
<path d="M66.6934 29.1161C77.6924 28.5171 85.0959 20.2457 85.0959 20.2457C85.0959 20.2457 77.6924 22.2927 68.5895 21.0143C59.4872 19.7358 54.9358 17.23 54.9358 17.23C54.9358 17.23 55.6945 29.7146 66.6934 29.1161Z" fill="#FFDF00"/>
<path d="M82.4332 45.2817C88.3119 41.4898 85.4438 27.1924 85.4438 27.1924C85.4438 27.1924 84.2347 36.2249 77.6623 39.0949C72.627 41.2931 66.6238 41.348 66.6238 41.348C66.6238 41.348 76.5544 49.0736 82.4332 45.2817Z" fill="#FFDF00"/>
<path d="M134.423 20.3777C134.353 20.3505 134.287 20.3353 134.225 20.3353C134.225 20.3353 134.296 20.3494 134.423 20.3777Z" fill="#FFDF00"/>
<path d="M133.564 51.6208C133.556 51.6382 133.548 51.6545 133.54 51.6719C132.592 53.6939 133.54 56.6346 134.014 57.5326C134.488 58.4311 135.341 59.0296 135.54 56.1998C135.697 53.9641 136.992 52.0453 137.528 51.3381C136.912 51.1066 136.236 50.8005 135.578 50.401L134.909 50.8125C134.872 50.8348 134.334 51.1658 133.564 51.6208Z" fill="#FFDF00"/>
<path d="M127.01 34.8979C127.01 34.8979 129.286 40.8853 132.51 39.4878C135.734 38.0908 132.51 28.1121 132.51 28.1121C132.51 34.0994 127.01 34.8979 127.01 34.8979Z" fill="#FFDF00"/>
<path d="M136.205 34.6947C136.205 34.6947 136.205 34.6947 137.533 34.6947C138.861 34.6947 139.998 33.6973 139.462 30.7033C138.926 27.7099 132.793 24.798 132.793 24.798C135.663 28.3823 136.205 34.6947 136.205 34.6947Z" fill="#FFDF00"/>
<path d="M143.222 17.9398C139.999 16.3434 135.447 17.9398 135.447 17.9398C139.238 17.9398 144.549 23.9272 146.446 24.7252C148.343 25.5237 146.446 19.5363 143.222 17.9398Z" fill="#FFDF00"/>
<path d="M121.603 22.7298C128.999 32.309 131.275 17.7404 133.171 13.549C135.068 9.35808 142.843 19.3368 162.376 18.7378C174.356 18.3709 187.054 7.72954 189.494 4.03003C190.916 1.87371 180.96 4.96714 164.841 7.36209C148.722 9.75704 145.308 5.36667 136.205 4.16919C127.103 2.97172 125.396 9.75706 125.396 15.3455C125.396 20.9333 121.603 22.7298 121.603 22.7298Z" fill="#FFDF00"/>
<path d="M142 30.0336C144.086 31.2311 144.656 28.4372 143.707 25.2524C142.845 22.3558 135.708 20.661 134.423 20.3778C136.079 21.0165 139.999 28.8851 142 30.0336Z" fill="#FFDF00"/>
<path d="M91.3723 34.5474C91.3723 34.5474 93.6992 39.3656 93.8526 43.5407C93.9698 46.7129 93.8526 49.9917 93.8526 49.9917C93.8526 49.9917 98.1732 49.2731 99.5012 46.6037C100.829 43.9337 91.3723 34.5474 91.3723 34.5474Z" fill="#FFDF00"/>
<path d="M172.711 60.4613C174.868 59.8352 168.622 56.458 166.514 54.4957C163.872 52.0372 162.679 47.7185 162.405 46.5999C161.261 47.1179 158.646 48.0169 158.646 48.0169L158.579 48.8252C158.599 50.4168 158.795 54.1217 160.1 56.8689C161.807 60.4613 170.554 61.0875 172.711 60.4613Z" fill="#FFDF00"/>
<path d="M154.032 48.3126C154.032 48.3126 149.833 46.6194 148.087 44.2897C145.037 40.2184 145.679 31.6208 145.679 31.6208C145.679 31.6208 139.24 48.4746 143.033 49.6721C146.825 50.8696 154.032 48.3126 154.032 48.3126Z" fill="#FFDF00"/>
<path d="M151.524 61.6606C153.14 62.1335 150.86 59.4515 149.912 58.1545C149.15 57.1114 149.429 53.1037 149.568 51.5708C148.251 51.8214 146.827 52.0056 145.487 52.0056H145.487C145.241 52.0056 145.001 51.998 144.768 51.9855C144.795 53.2955 144.919 55.7873 145.455 57.5403C146.214 60.0195 149.908 61.1877 151.524 61.6606Z" fill="#FFDF00"/>
<path d="M133.943 49.0737C133.943 49.0737 132.759 48.0474 132.792 46.3287C132.861 42.8156 137.667 38.1034 137.667 38.1034C128.482 43.1901 128.052 50.6701 127.103 52.2671C126.155 53.8636 133.943 49.0737 133.943 49.0737Z" fill="#FFDF00"/>
<path d="M159.533 61.2615C161.618 61.48 158.431 59.2519 157.008 57.356C155.824 55.778 156.24 51.1131 156.413 49.5938L154.643 50.2217C154.532 50.2608 153.052 50.781 151.069 51.2495C151.186 52.5932 151.482 54.8485 151.983 56.7575C152.741 59.6509 157.448 61.043 159.533 61.2615Z" fill="#FFDF00"/>
<path d="M142.587 61.4832C143.82 62.0953 142.682 60.0727 141.849 57.7772C141.208 56.009 142.146 52.3633 142.146 52.3633L139.848 51.9811C139.705 51.9572 139.265 51.8773 138.663 51.7088C138.422 52.6845 138.021 54.6077 138.225 55.9454C138.51 57.806 141.355 60.8706 142.587 61.4832Z" fill="#FFDF00"/>
<path d="M139.426 72.4611C139.126 72.1524 138.526 71.3223 138.526 71.3223C138.526 71.3223 134.53 71.0451 131.149 73.807C130.83 74.001 133.697 73.1504 133.395 73.7015C133.093 74.2533 130.076 76.7808 129.762 77.3521C129.449 77.9234 136.598 73.1427 139.426 72.4611Z" fill="#FFDF00"/>
<path d="M142.627 34.5474C142.627 34.5474 133.171 43.9337 134.499 46.6037C135.826 49.2731 140.147 49.9917 140.147 49.9917C140.147 49.9917 140.03 46.7129 140.147 43.5407C140.301 39.3656 142.627 34.5474 142.627 34.5474Z" fill="#FFDF00"/>
<path d="M119.442 198.668L119.513 197.228C118.893 196.59 118.056 196.004 117.057 195.444C116.458 195.108 115.801 194.783 115.099 194.461C114.887 194.364 114.67 194.268 114.45 194.171L114.486 194.892L114.531 195.8L114.974 204.801C115.488 205.934 116.167 207.276 117.057 208.858C117.097 208.93 117.136 209 117.177 209.074C117.477 209.603 117.789 210.139 118.109 210.677C118.334 211.054 118.562 211.434 118.795 211.814L118.921 209.238V209.239L118.981 208.012L119.442 198.668Z" fill="#FFDF00"/>
<path d="M129.657 190.126C129.1 189.686 128.489 189.27 127.835 188.873C125.993 187.758 123.81 186.795 121.515 185.871C121.047 185.683 120.575 185.496 120.1 185.309C119.091 184.914 118.071 184.521 117.057 184.122C116.207 183.787 115.362 183.446 114.533 183.097C114.318 183.006 114.104 182.915 113.891 182.822C113.417 182.617 112.949 182.408 112.489 182.194C108.021 180.109 104.356 177.559 103.479 173.563C102.753 170.255 106.225 166.906 111.406 163.317L111.109 158.145C109.174 156.938 107.198 155.684 105.259 154.382C90.2747 164.229 83.351 170.316 92.4492 180.057C95.8281 183.676 100.047 186.095 104.246 187.992C104.926 188.298 105.604 188.591 106.279 188.873C108.631 189.857 110.931 190.709 113.027 191.55C113.477 191.73 113.918 191.911 114.348 192.091C115.312 192.497 116.22 192.907 117.057 193.333C117.765 193.694 118.421 194.068 119.014 194.461C119.227 194.603 119.432 194.746 119.628 194.892C120.139 195.274 120.592 195.677 120.98 196.107C121.677 196.88 122.16 197.741 122.377 198.729C122.761 200.481 121.928 203.177 120.447 206.284L120.052 213.832C120.561 214.634 121.079 215.435 121.599 216.227C128.138 208.795 133.914 200.357 133.002 195.186C132.642 193.147 131.416 191.516 129.657 190.126Z" fill="#FFDF00"/>
<path d="M128.855 154.381C128.303 154.019 127.741 153.651 127.168 153.278C125.942 152.48 124.669 151.657 123.35 150.805C123.165 150.686 122.98 150.566 122.793 150.445C122.473 150.238 122.159 150.033 121.848 149.829C120.109 148.688 118.513 147.591 117.057 146.537C116.516 146.146 115.995 145.76 115.491 145.38C114.17 144.383 112.976 143.426 111.905 142.506C111.267 141.959 110.673 141.424 110.12 140.904C101.592 132.866 102.989 127.909 109.178 124.482L109.001 121.415C105.303 120.63 101.461 119.939 97.8611 119.293C97.5222 119.232 97.1829 119.171 96.8425 119.11C93.6175 121.966 91.3103 125.452 90.3584 129.789C88.4179 138.63 96.1029 145.866 105.273 152.152C105.826 152.531 106.384 152.906 106.946 153.278C108.278 154.161 109.63 155.024 110.979 155.871C111.525 156.214 112.071 156.554 112.613 156.891C114.123 157.829 115.615 158.746 117.057 159.646C117.649 160.015 118.234 160.382 118.807 160.746C119.641 161.276 120.452 161.799 121.233 162.318C121.734 162.651 122.222 162.98 122.695 163.309C127.884 166.901 131.361 170.252 130.635 173.563C129.764 177.533 126.14 180.076 121.71 182.153L121.619 183.896C124.617 185.091 127.534 186.367 129.868 187.991C134.067 186.095 138.286 183.676 141.665 180.057C150.763 170.316 143.839 164.229 128.855 154.381Z" fill="#FFDF00"/>
<path d="M121.126 164.494C119.831 163.611 118.453 162.721 117.057 161.841C116.475 161.474 115.89 161.109 115.306 160.746C114.737 160.393 114.168 160.041 113.606 159.693C113.315 159.513 113.02 159.33 112.725 159.148L112.881 162.318L112.988 164.494L113.788 180.732C114.843 181.208 115.942 181.663 117.057 182.107C117.828 182.415 118.606 182.718 119.381 183.019C119.448 183.045 119.514 183.071 119.581 183.097C119.786 183.177 119.991 183.257 120.197 183.337L120.222 182.822L120.253 182.208L121.126 164.494Z" fill="#FFDF00"/>
<path d="M114.697 221.321C114.036 220.628 113.376 219.921 112.721 219.204C108.025 226.211 103.723 231.977 105.346 231.351C106.498 230.907 110.325 227.764 114.783 223.401L114.697 221.321Z" fill="#FFDF00"/>
<path d="M118.153 224.824C117.791 224.469 117.425 224.107 117.057 223.739C116.656 223.337 116.252 222.929 115.847 222.514L115.96 224.824L116.234 236.017C116.234 236.017 116.292 236.999 117 236.999C117.708 236.999 117.88 236.017 117.88 236.017L118.153 224.824Z" fill="#FFDF00"/>
<path d="M120.345 217.63C120.194 217.4 120.042 217.169 119.89 216.936C119.469 216.294 119.051 215.647 118.637 214.997C118.098 214.149 117.569 213.298 117.057 212.453C116.696 211.857 116.344 211.264 116.004 210.676C115.725 210.193 115.454 209.714 115.192 209.238C112.811 204.916 111.235 201.018 111.737 198.729C111.969 197.674 112.503 196.763 113.279 195.95L113.145 193.619C112.126 193.199 111.048 192.78 109.937 192.348C108.205 191.675 106.349 190.952 104.456 190.126C102.698 191.515 101.472 193.147 101.113 195.186C100.2 200.357 105.975 208.794 112.514 216.226C112.93 216.698 113.348 217.167 113.768 217.63C114.413 218.341 115.062 219.039 115.709 219.722C116.16 220.197 116.61 220.665 117.057 221.124C117.466 221.543 117.872 221.954 118.275 222.357L118.348 222.431C118.75 222.832 119.148 223.224 119.541 223.607C123.909 227.863 127.634 230.914 128.767 231.351C130.39 231.977 126.089 226.211 121.392 219.204C121.045 218.686 120.695 218.16 120.345 217.63Z" fill="#FFDF00"/>
<path d="M181.753 50.9049C176.383 48.4833 172.285 44.3571 170.114 41.8241L168.514 42.9678C168.446 43.021 166.848 44.2571 164.542 45.5269C164.972 47.213 166.53 51.3631 171.892 54.9963C178.814 59.6862 190.476 58.7882 193.131 57.7902C195.786 56.7923 189.363 54.337 181.753 50.9049Z" fill="#FFDF00"/>
<path d="M204.665 22.6558C189.571 21.7568 181.714 17.162 181.012 16.7348L180.974 17.3588C180.966 17.4969 180.75 20.7691 179.136 24.0697C180.572 25.7139 184.593 28.6095 195.847 31.7785C213.199 36.6646 226.568 23.9984 227.232 22.6558C227.896 21.3138 220.5 23.5989 204.665 22.6558Z" fill="#FFDF00"/>
<path d="M199.45 34.9094C189.395 33.3005 179.437 27.2925 179.437 27.2925L177.206 31.329C177.192 31.3534 177.159 31.4138 177.105 31.5045C179.755 34.2702 185.043 38.8188 193.192 41.5893C205.519 45.7807 217.656 40.0929 219.268 37.8974C220.88 35.702 210.639 36.6999 199.45 34.9094Z" fill="#FFDF00"/>
<path d="M98.4225 50.401C97.7645 50.8005 97.0884 51.1066 96.4716 51.3381C97.0083 52.0453 98.3022 53.9641 98.4592 56.1998C98.6581 59.0296 99.5114 58.4311 99.9855 57.5326C100.46 56.6346 101.408 53.6939 100.46 51.6719C100.451 51.6545 100.444 51.6382 100.436 51.6208C99.6663 51.1658 99.1276 50.8348 99.0914 50.8125L98.4225 50.401Z" fill="#FFDF00"/>
<path d="M217.466 6.6201C208.332 7.55613 193.482 7.62191 189.003 7.62082C187.408 9.24554 185.138 11.1915 182.377 13.1097C183.729 14.5616 189.241 19.0395 206.561 20.2723C227.327 21.7503 232.163 7.21911 233.775 5.62266C235.386 4.02567 228.18 5.52265 217.466 6.6201Z" fill="#FFDF00"/>
<path d="M192.433 44.0973C183.691 41.9687 177.206 35.4443 175.58 33.6804C174.419 35.1274 172.644 36.9635 170.268 38.3714C171.086 39.8716 173.666 43.2906 181.435 47.5234C191.975 53.2662 203.717 50.3592 206.185 48.7578C208.653 47.157 202.58 46.5673 192.433 44.0973Z" fill="#FFDF00"/>
<path d="M113.711 122.496C112.788 122.265 112.031 122.041 111.072 121.826L111.737 139.108L111.779 139.945C113.202 141.243 114.942 142.672 117.057 144.241C117.557 144.613 118.079 144.993 118.622 145.38C119.653 146.115 120.762 146.879 121.954 147.673L122.242 141.822L122.335 139.945L122.855 125.604C121.156 124.794 119.304 124.067 117.057 123.403C115.984 123.087 114.865 122.785 113.711 122.496Z" fill="#FFDF00"/>
<path d="M154.508 68.3811C153.722 68.3811 151.943 67.6146 151.943 67.6146H156.121C156.121 67.6146 155.293 68.3811 154.508 68.3811ZM150.408 65.261C149.919 65.3398 149.426 65.3893 148.932 65.3963C123.679 65.779 151.131 79.6649 154.562 80.4988C158.026 81.3408 165.106 84.5016 160.621 94.4521C157.428 101.536 141.538 103.669 125.625 107.312L125.47 110.276C126.51 110.675 127.526 111.094 128.513 111.534C132.19 113.176 135.27 115.028 137.771 117.108C142.227 116.305 146.599 115.491 150.508 114.554C180.93 107.255 176.112 86.2176 169.951 78.9599C163.9 71.8316 163.722 63.1014 150.408 65.261Z" fill="#FFDF00"/>
<path d="M90.7773 17.9398C87.5538 19.5363 85.6572 25.5237 87.5538 24.7252C89.4498 23.9272 94.7615 17.9398 98.5527 17.9398C98.5527 17.9398 94.0012 16.3434 90.7773 17.9398Z" fill="#FFDF00"/>
<path d="M91.4125 61.4832C92.6454 60.8706 95.4898 57.806 95.7744 55.9454C95.9789 54.6077 95.5781 52.6845 95.3364 51.7088C94.7347 51.8773 94.2941 51.9572 94.1515 51.9811L91.8531 52.3633C91.8531 52.3633 92.7916 56.009 92.1501 57.7772C91.318 60.0727 90.1802 62.0953 91.4125 61.4832Z" fill="#FFDF00"/>
<path d="M94.6879 72.4611C97.5152 73.1427 104.664 77.9234 104.351 77.3521C104.038 76.7808 101.021 74.2533 100.718 73.7015C100.416 73.1504 103.284 74.001 102.965 73.807C99.5832 71.0451 95.5876 71.3223 95.5876 71.3223C95.5876 71.3223 94.988 72.1524 94.6879 72.4611Z" fill="#FFDF00"/>
<path d="M97.794 34.6947C97.794 34.6947 98.3368 28.3823 101.208 24.798C101.208 24.798 95.074 27.7099 94.5374 30.7033C94.0012 33.6973 95.1391 34.6947 96.4665 34.6947C97.794 34.6947 97.794 34.6947 97.794 34.6947Z" fill="#FFDF00"/>
<path d="M106.897 52.2671C105.948 50.6701 105.518 43.1901 96.3332 38.1034C96.3332 38.1034 101.139 42.8156 101.207 46.3287C101.241 48.0474 100.057 49.0737 100.057 49.0737C100.057 49.0737 107.845 53.8636 106.897 52.2671Z" fill="#FFDF00"/>
<path d="M90.293 25.2524C89.3447 28.4372 89.9134 31.2311 91.9995 30.0336C94.0004 28.8851 97.921 21.0165 99.5759 20.3778C98.2914 20.661 91.155 22.3558 90.293 25.2524Z" fill="#FFDF00"/>
<path d="M99.7747 20.3353C99.7127 20.3353 99.6461 20.3505 99.5758 20.3777C99.7039 20.3494 99.7747 20.3353 99.7747 20.3353Z" fill="#FFDF00"/>
<path d="M40.8078 41.5893C48.9566 38.8188 54.2454 34.2702 56.8945 31.5045C56.8413 31.4138 56.8072 31.3534 56.7938 31.329L54.5635 27.2925C54.5635 27.2925 44.6054 33.3005 34.5498 34.9094C23.3611 36.6999 13.1206 35.702 14.7326 37.8974C16.3445 40.0929 28.4813 45.7807 40.8078 41.5893Z" fill="#FFDF00"/>
<path d="M82.0572 67.6147C82.0572 67.6147 80.2773 68.3811 79.4922 68.3811C78.7072 68.3811 77.8787 67.6147 77.8787 67.6147H82.0572ZM98.7804 117.546C102.199 118.16 105.624 118.781 108.889 119.459C109.529 119.592 110.163 119.726 110.79 119.865C112.989 120.348 115.097 120.864 117.057 121.428C118.229 121.765 119.348 122.12 120.403 122.496C121.373 122.842 122.289 123.205 123.141 123.588C123.7 123.841 124.231 124.102 124.733 124.372C131.125 127.819 132.63 132.83 123.862 141.028L123.462 148.665C123.551 148.724 123.64 148.781 123.73 148.84L124.307 149.212C125.884 150.231 127.394 151.208 128.84 152.152C138.011 145.867 145.696 138.63 143.755 129.789C142.803 125.452 140.496 121.966 137.271 119.11C136.657 118.566 136.01 118.046 135.333 117.546C132.475 115.439 129.079 113.709 125.367 112.244C124.828 112.031 124.282 111.824 123.73 111.621C121.582 110.835 119.344 110.127 117.057 109.477C115.921 109.155 114.773 108.847 113.617 108.551C112.481 108.259 111.336 107.979 110.19 107.708C109.524 107.551 108.856 107.396 108.188 107.244C92.3758 103.642 76.6649 101.492 73.4921 94.4522C69.0073 84.5017 76.088 81.3408 79.5516 80.4989C82.9833 79.665 110.434 65.7791 85.182 65.3964C84.6877 65.3893 84.1945 65.3399 83.7059 65.261C70.3915 63.1014 70.2133 71.8317 64.1626 78.96C58.0017 86.2177 53.1833 107.255 83.6051 114.554C87.514 115.492 91.8867 116.305 96.3425 117.108C97.1534 117.254 97.9664 117.4 98.7804 117.546Z" fill="#FFDF00"/>
<path d="M63.7313 38.3714C61.3554 36.9635 59.5807 35.1274 58.4202 33.6804C56.7937 35.4443 50.309 41.9687 41.5663 44.0973C31.4207 46.5673 25.3473 47.157 27.815 48.7578C30.2828 50.3592 42.025 53.2662 52.5651 47.5234C60.3343 43.2906 62.9132 39.8716 63.7313 38.3714Z" fill="#FFDF00"/>
<path d="M69.4578 45.5269C67.1522 44.2571 65.5546 43.021 65.486 42.9678L63.8853 41.8241C61.715 44.3571 57.6171 48.4833 52.247 50.9049C44.637 54.337 38.2138 56.7923 40.8687 57.7902C43.5236 58.7882 55.1864 59.6862 62.108 54.9963C67.4698 51.3631 69.0276 47.213 69.4578 45.5269Z" fill="#FFDF00"/>
<path d="M101.49 28.1121C101.49 28.1121 98.2659 38.0908 101.49 39.4878C104.713 40.8853 106.989 34.8979 106.989 34.8979C106.989 34.8979 101.49 34.0994 101.49 28.1121Z" fill="#FFDF00"/>
<path d="M27.4383 20.2723C44.7583 19.0395 50.2704 14.5616 51.6229 13.1097C48.8615 11.1915 46.5915 9.24554 44.9968 7.62082C40.5176 7.62191 25.667 7.55613 16.5341 6.6201C5.81955 5.52265 -1.38669 4.02567 0.225216 5.62266C1.83716 7.21911 6.67296 21.7503 27.4383 20.2723Z" fill="#FFDF00"/>
<path d="M38.1529 31.7785C49.4065 28.6095 53.4277 25.7139 54.8641 24.0697C53.25 20.7691 53.0341 17.4969 53.0259 17.3588L52.9877 16.7348C52.2863 17.162 44.4292 21.7568 29.3347 22.6558C13.4999 23.5989 6.10398 21.3138 6.76778 22.6558C7.43149 23.9984 20.801 36.6646 38.1529 31.7785Z" fill="#FFDF00"/>
</svg>
