<svg width="234" height="237" viewBox="0 0 234 237" fill="none" xmlns="http://www.w3.org/2000/svg">
<path d="M19.3541 81.7051C19.3541 75.4803 24.5898 70.4341 31.0484 70.4341H203.433C209.884 70.4341 215.114 75.4747 215.114 81.6926V157.017C215.114 163.662 209.524 169.05 202.629 169.05H31.3138C24.7087 169.05 19.3541 163.889 19.3541 157.523L19.3541 81.7051Z" stroke="#FFDF00" stroke-width="4.0411" stroke-linecap="round"/>
<path d="M46.697 160.269C46.7651 159.677 46.8 159.076 46.8 158.468C46.8 149.519 39.2521 142.257 29.952 142.257C29.4792 142.257 29.011 142.276 28.548 142.312V97.1713C29.011 97.2081 29.4792 97.2268 29.952 97.2268C39.2521 97.2268 46.8 89.9644 46.8 81.016C46.8 80.4073 46.7651 79.8063 46.697 79.2148H187.303C187.235 79.8063 187.2 80.4073 187.2 81.016C187.2 89.9644 194.748 97.2268 204.048 97.2268C204.681 97.2268 205.305 97.1932 205.92 97.1278V142.356C205.305 142.29 204.681 142.257 204.048 142.257C194.748 142.257 187.2 149.519 187.2 158.468C187.2 159.076 187.235 159.677 187.303 160.269H46.697Z" stroke="#FFDF00" stroke-width="2.92404" stroke-linecap="round"/>
<path d="M116.12 85.5618C133.895 85.5618 148.321 99.4347 148.321 116.528C148.321 133.622 133.895 147.495 116.12 147.495C98.3454 147.495 83.9194 133.622 83.9194 116.528C83.9194 99.4347 98.3454 85.5618 116.12 85.5618Z" stroke="#FFDF00" stroke-width="2.89403" stroke-linecap="round"/>
<path d="M113.591 140.604V134.964C111.532 134.928 109.562 134.749 107.683 134.427C105.821 134.105 104.299 133.684 103.117 133.165V128.814C104.352 129.387 105.937 129.888 107.871 130.318C109.804 130.748 111.711 130.981 113.591 131.016V119.2C111.227 118.538 109.267 117.786 107.709 116.944C106.17 116.085 105.015 115.037 104.245 113.802C103.475 112.567 103.09 111.072 103.09 109.317C103.09 107.491 103.52 105.933 104.379 104.644C105.257 103.337 106.483 102.317 108.059 101.583C109.634 100.849 111.478 100.428 113.591 100.321V95.6746H116.867V100.267C118.783 100.321 120.528 100.535 122.104 100.911C123.679 101.269 125.139 101.735 126.481 102.308L125.085 106.041C123.867 105.557 122.552 105.146 121.137 104.805C119.723 104.465 118.299 104.233 116.867 104.107V115.843C119.266 116.541 121.271 117.284 122.883 118.072C124.512 118.86 125.738 119.836 126.562 120.999C127.385 122.163 127.797 123.667 127.797 125.511C127.797 128.125 126.839 130.238 124.924 131.849C123.008 133.442 120.322 134.409 116.867 134.749V140.604H113.591ZM116.867 130.775C119.069 130.56 120.707 130.032 121.782 129.19C122.874 128.331 123.42 127.203 123.42 125.806C123.42 124.804 123.205 123.98 122.775 123.336C122.364 122.691 121.683 122.136 120.734 121.671C119.785 121.187 118.496 120.731 116.867 120.301V130.775ZM113.591 114.715V104.215C112.248 104.304 111.12 104.555 110.207 104.967C109.294 105.378 108.605 105.915 108.139 106.578C107.691 107.24 107.468 108.028 107.468 108.941C107.468 109.997 107.665 110.884 108.059 111.6C108.47 112.298 109.124 112.898 110.019 113.399C110.932 113.883 112.123 114.321 113.591 114.715Z" fill="#FFDF00"/>
<path d="M178.074 169.355V205.788L196.794 224.748" stroke="#FFDF00" stroke-width="3" stroke-linecap="round"/>
<path d="M201.006 234.91C204.106 234.91 206.622 232.361 206.622 229.222C206.622 226.082 204.106 223.534 201.006 223.534C197.906 223.534 195.39 226.082 195.39 229.222C195.39 232.361 197.906 234.91 201.006 234.91Z" stroke="#FFDF00" stroke-width="2.88" stroke-linecap="round"/>
<path d="M55.926 169.355V205.788L37.206 224.748" stroke="#FFDF00" stroke-width="3" stroke-linecap="round"/>
<path d="M32.994 234.91C36.094 234.91 38.61 232.361 38.61 229.222C38.61 226.082 36.094 223.534 32.994 223.534C29.894 223.534 27.378 226.082 27.378 229.222C27.378 232.361 29.894 234.91 32.994 234.91Z" stroke="#FFDF00" stroke-width="2.88" stroke-linecap="round"/>
<path d="M178.542 69.9725V33.5396L197.262 14.5796" stroke="#FFDF00" stroke-width="3" stroke-linecap="round"/>
<path d="M201.474 4.41772C204.574 4.41772 207.09 6.96595 207.09 10.1057C207.09 13.2455 204.574 15.7937 201.474 15.7937C198.374 15.7937 195.858 13.2455 195.858 10.1057C195.858 6.96595 198.374 4.41772 201.474 4.41772Z" stroke="#FFDF00" stroke-width="2.88" stroke-linecap="round"/>
<path d="M56.394 69.9725V33.5396L37.674 14.5796" stroke="#FFDF00" stroke-width="3" stroke-linecap="round"/>
<path d="M33.462 4.41772C36.562 4.41772 39.078 6.96595 39.078 10.1057C39.078 13.2455 36.562 15.7937 33.462 15.7937C30.362 15.7937 27.846 13.2455 27.846 10.1057C27.846 6.96595 30.362 4.41772 33.462 4.41772Z" stroke="#FFDF00" stroke-width="2.88" stroke-linecap="round"/>
<path d="M84.006 70.4741V30.9619" stroke="#FFDF00" stroke-width="3" stroke-linecap="round"/>
<path d="M84.006 19.1117C87.106 19.1117 89.622 21.6599 89.622 24.7997C89.622 27.9395 87.106 30.4877 84.006 30.4877C80.906 30.4877 78.39 27.9395 78.39 24.7997C78.39 21.6599 80.906 19.1117 84.006 19.1117Z" stroke="#FFDF00" stroke-width="2.88" stroke-linecap="round"/>
<path d="M116.766 70.4741V30.9619" stroke="#FFDF00" stroke-width="3" stroke-linecap="round"/>
<path d="M116.766 19.1117C119.866 19.1117 122.382 21.6599 122.382 24.7997C122.382 27.9395 119.866 30.4877 116.766 30.4877C113.666 30.4877 111.15 27.9395 111.15 24.7997C111.15 21.6599 113.666 19.1117 116.766 19.1117Z" stroke="#FFDF00" stroke-width="2.88" stroke-linecap="round"/>
<path d="M149.526 70.4741V30.9619" stroke="#FFDF00" stroke-width="3" stroke-linecap="round"/>
<path d="M149.526 19.1117C152.626 19.1117 155.142 21.6599 155.142 24.7997C155.142 27.9395 152.626 30.4877 149.526 30.4877C146.426 30.4877 143.91 27.9395 143.91 24.7997C143.91 21.6599 146.426 19.1117 149.526 19.1117Z" stroke="#FFDF00" stroke-width="2.88" stroke-linecap="round"/>
<path d="M83.538 168.853V208.365" stroke="#FFDF00" stroke-width="3" stroke-linecap="round"/>
<path d="M83.538 220.216C86.638 220.216 89.154 217.667 89.154 214.528C89.154 211.388 86.638 208.84 83.538 208.84C80.438 208.84 77.922 211.388 77.922 214.528C77.922 217.667 80.438 220.216 83.538 220.216Z" stroke="#FFDF00" stroke-width="2.88" stroke-linecap="round"/>
<path d="M116.298 168.853V208.365" stroke="#FFDF00" stroke-width="3" stroke-linecap="round"/>
<path d="M116.298 220.216C119.398 220.216 121.914 217.667 121.914 214.528C121.914 211.388 119.398 208.84 116.298 208.84C113.198 208.84 110.682 211.388 110.682 214.528C110.682 217.667 113.198 220.216 116.298 220.216Z" stroke="#FFDF00" stroke-width="2.88" stroke-linecap="round"/>
<path d="M149.058 168.853V208.365" stroke="#FFDF00" stroke-width="3" stroke-linecap="round"/>
<path d="M149.058 220.216C152.158 220.216 154.674 217.667 154.674 214.528C154.674 211.388 152.158 208.84 149.058 208.84C145.958 208.84 143.442 211.388 143.442 214.528C143.442 217.667 145.958 220.216 149.058 220.216Z" stroke="#FFDF00" stroke-width="2.88" stroke-linecap="round"/>
</svg>
